<svg xmlns:xlink="http://www.w3.org/1999/xlink" version="1.1" id="Layer_1" xmlns="http://www.w3.org/2000/svg" x="0" y="0" viewBox="0 0 76 76" xml:space="preserve" enable-background="new 0 0 76 76"><style type="text/css">.st0{fill:#c7c8cf}.st1{fill:#8994b0}.st2{fill:#636b8d}.st3{fill:#444f74}.st4{fill:#8089a4}</style><circle class="st0" cx="38" cy="38" r="38"/><path class="st1" d="M20.2,41.9c3.3,1.9,6.6,3.9,9.9,5.8c2.7,1.5,5.2,3.3,8,4.6c-0.1,0.4-0.2,0.9-0.2,1.3c0.1,4.5-0.3,9,0.2,13.6 c0,0.1,0,0.2,0,0.3c-0.1,0-0.1,0-0.2,0c-1.9-3-4-5.8-6-8.6c-3.8-5.3-7.5-10.7-11.3-16c-0.2-0.3-0.3-0.5-0.5-0.8 C20.1,42,20.2,42,20.2,41.9z"/><path class="st2" d="M37.8,8.6c0.6-0.2,0.6,0.4,0.8,0.7c5.7,9.4,11.3,18.8,17,28.3c0.2,0.4,0.5,0.8,0.7,1.1l-0.1,0l-0.1,0 c-0.5,0-0.9-0.2-1.3-0.4c-5.2-2.4-10.5-4.8-15.7-7.2c-1.1-0.5-1.1-0.5-1.1,0.7c0,5.6,0,11.1,0,16.7c0,0.4-0.1,0.8,0.2,1.1 c-0.3,0.4-0.6,0.1-0.9-0.1c-5.7-3.4-11.5-6.8-17.2-10.2c-0.3-0.2-0.6-0.2-0.6-0.6c0,0,0.1,0,0.1,0c0.2,0,0.4,0,0.6-0.1 c5.6-2.5,11.2-5.1,16.8-7.6c0.7-0.3,1-0.8,1-1.6c0-6.4,0-12.8,0-19.2C38.1,9.6,38,9.1,37.8,8.6z"/><path class="st3" d="M38.3,49.5c-0.4-0.3-0.2-0.7-0.2-1.1c0-5.6,0-11.1,0-16.7c0-1.2,0-1.2,1.1-0.7c5.2,2.4,10.5,4.8,15.7,7.2 c0.4,0.2,0.8,0.4,1.3,0.4c0.2,0.3-0.1,0.4-0.3,0.5C50,42.6,44.2,46.1,38.3,49.5z"/><path class="st4" d="M38.1,67.2c-0.5-4.5-0.1-9-0.2-13.6c0-0.4,0.1-0.9,0.2-1.3c5.9-3.5,11.8-6.9,17.6-10.4 c0.1,0.1,0.1,0.1,0.2,0.2c-3,4.2-5.9,8.4-8.9,12.7c-2.8,3.9-5.6,7.9-8.3,11.8C38.5,66.8,38.3,67,38.1,67.2z"/><path class="st1" d="M20.1,42.1c0-0.1-0.1-0.1-0.1-0.2c0.1,0,0.1,0,0.2,0.1C20.2,42,20.1,42,20.1,42.1z"/><path class="st4" d="M55.7,41.9c0.1,0,0.2,0,0.2,0c0,0.1-0.1,0.2-0.1,0.2C55.8,42,55.8,41.9,55.7,41.9z"/><path class="st1" d="M37.8,8.6c0.2,0.5,0.2,1,0.2,1.5c0,6.4,0,12.8,0,19.2c0,0.8-0.2,1.3-1,1.6c-5.6,2.5-11.2,5.1-16.8,7.6 c-0.2,0.1-0.4,0.1-0.6,0.1c1.9-3.2,3.8-6.4,5.7-9.6c4-6.7,8-13.3,12-20C37.5,8.9,37.7,8.8,37.8,8.6z"/></svg>