<?xml version="1.0" encoding="UTF-8"?>
<svg xmlns:xlink="http://www.w3.org/1999/xlink" width="26px" height="26px" viewBox="0 0 26 26" version="1.1"
     xmlns="http://www.w3.org/2000/svg">
    <!-- Generator: Sketch 49.3 (51167) - http://www.bohemiancoding.com/sketch -->
    <title>help-icon-active</title>
    <desc>Created with Sketch.</desc>
    <defs></defs>
    <g id="futurescoin" stroke="none" stroke-width="1" fill="none" fill-rule="evenodd">
        <g id="icons" transform="translate(-172.000000, -64.000000)">
            <g id="help-icon-active" transform="translate(170.000000, 62.000000)">
                <rect id="bg" x="0" y="0" width="30" height="30"></rect>
                <path d="M15,2 C7.832031,2 2,7.832031 2,15 C2,22.167969 7.832031,28 15,28 C22.167969,28 28,22.167969 28,15 C28,7.832031 22.167969,2 15,2 Z M15,4 C21.085938,4 26,8.914063 26,15 C26,21.085938 21.085938,26 15,26 C8.914063,26 4,21.085938 4,15 C4,8.914063 8.914063,4 15,4 Z"
                      id="help-icon" fill="#0084FF" fill-rule="nonzero"></path>
                <path d="M14,9 L16,9 L16,11 L14,11 L14,9 Z M14,13 L16,13 L16,21 L14,21 L14,13 Z" id="Combined-Shape"
                      fill="#FFFFFF"></path>
            </g>
        </g>
    </g>
</svg>