<?xml version="1.0" encoding="UTF-8"?>
<svg xmlns:xlink="http://www.w3.org/1999/xlink" width="40px" height="34px" viewBox="0 0 40 34" version="1.1"
     xmlns="http://www.w3.org/2000/svg">
    <!-- Generator: Sketch 49.3 (51167) - http://www.bohemiancoding.com/sketch -->
    <title>photo-icon</title>
    <desc>Created with Sketch.</desc>
    <defs></defs>
    <g id="futurescoin" stroke="none" stroke-width="1" fill="none" fill-rule="evenodd">
        <g id="profile" transform="translate(-115.000000, -195.000000)" fill="#FFFFFF" fill-rule="nonzero">
            <g id="photo" transform="translate(50.000000, 150.000000)">
                <path d="M74.625,49 L74.625,50 L69.703126,50 C67.101562,50 65,52.101562 65,54.679688 L65,74.34375 C65,76.921876 67.101562,79 69.679688,79 L100.320312,79 C102.898438,79 105,76.921876 105,74.34375 L105,54.65625 C105,52.078126 102.898438,50 100.320312,50 L95.375,50 L95.375,49 C95.375,46.790861 93.584139,45 91.375,45 L78.625,45 C76.415861,45 74.625,46.790861 74.625,49 Z M84.9375,55 C90.023438,55 94.140626,59.023438 94.140626,64 C94.140626,68.976562 90.023438,73 84.9375,73 C79.859376,73 75.734376,68.976562 75.734376,64 C75.734376,59.023438 79.859376,55 84.9375,55 Z M84.9375,59 C82.0625,59 79.734376,61.242188 79.734376,64 C79.734376,66.757812 82.0625,69 84.9375,69 C87.804688,69 90.140626,66.757812 90.140626,64 C90.140626,61.242188 87.804688,59 84.9375,59 Z"
                      id="photo-icon"></path>
            </g>
        </g>
    </g>
</svg>